<svg id="ball-left" xmlns="http://www.w3.org/2000/svg" xmlns:xlink="http://www.w3.org/1999/xlink" width="70.913" height="69.202" viewBox="0 0 70.913 69.202">
  <defs>
    <linearGradient id="linear-gradient" x1="0.3" y1="0.042" x2="0.7" y2="0.958" gradientUnits="objectBoundingBox">
      <stop offset="0" stop-color="#c50d15"/>
      <stop offset="1" stop-color="#280001"/>
    </linearGradient>
    <linearGradient id="linear-gradient-2" x1="0.3" y1="0.042" x2="0.7" y2="0.958" gradientUnits="objectBoundingBox">
      <stop offset="0" stop-color="#1f0406"/>
      <stop offset="1" stop-color="#a8111a"/>
    </linearGradient>
    <linearGradient id="linear-gradient-3" x1="0.185" y1="0.074" x2="0.815" y2="0.926" gradientUnits="objectBoundingBox">
      <stop offset="0" stop-color="#190306"/>
      <stop offset="1" stop-color="#e0131f"/>
    </linearGradient>
    <linearGradient id="linear-gradient-4" x1="0.05" y1="0.378" x2="0.95" y2="0.622" gradientUnits="objectBoundingBox">
      <stop offset="0" stop-color="#2e0508"/>
      <stop offset="1" stop-color="#7d060d"/>
    </linearGradient>
    <linearGradient id="linear-gradient-5" x1="0.478" y1="0.021" x2="0.522" y2="0.979" gradientUnits="objectBoundingBox">
      <stop offset="0" stop-color="#420609"/>
      <stop offset="1" stop-color="#df131e"/>
    </linearGradient>
    <linearGradient id="linear-gradient-6" x1="0.42" y1="0.013" x2="0.58" y2="0.987" gradientUnits="objectBoundingBox">
      <stop offset="0" stop-color="#150305"/>
      <stop offset="1" stop-color="#70090f"/>
    </linearGradient>
    <linearGradient id="linear-gradient-7" x1="0.923" y1="1.007" x2="0.219" gradientUnits="objectBoundingBox">
      <stop offset="0" stop-color="#6f060a"/>
      <stop offset="1" stop-color="#8c080e"/>
    </linearGradient>
    <linearGradient id="linear-gradient-8" x1="0.83" y1="1.002" x2="0.358" xlink:href="#linear-gradient-7"/>
    <linearGradient id="linear-gradient-9" x1="1.048" y1="0.415" x2="0" y2="0.415" gradientUnits="objectBoundingBox">
      <stop offset="0" stop-color="#2a0001"/>
      <stop offset="1" stop-color="#360103"/>
    </linearGradient>
    <linearGradient id="linear-gradient-10" x1="1.049" y1="0.38" y2="0.447" xlink:href="#linear-gradient-9"/>
    <linearGradient id="linear-gradient-11" x1="0.045" y1="0.985" x2="0.94" gradientUnits="objectBoundingBox">
      <stop offset="0" stop-color="#380103"/>
      <stop offset="1" stop-color="#470205"/>
    </linearGradient>
    <linearGradient id="linear-gradient-12" x1="0.109" y1="0.976" x2="0.865" y2="0.005" xlink:href="#linear-gradient-11"/>
    <linearGradient id="linear-gradient-13" x2="1.068" y2="0.963" gradientUnits="objectBoundingBox">
      <stop offset="0" stop-color="#92090e"/>
      <stop offset="1" stop-color="#82070c"/>
    </linearGradient>
    <linearGradient id="linear-gradient-14" x2="1.07" y2="0.921" xlink:href="#linear-gradient-13"/>
  </defs>
  <path id="Ellipse" d="M66.294,20.738A34.592,34.592,0,1,1,20.738,2.908,34.592,34.592,0,0,1,66.294,20.738Z" transform="translate(1.711 0)" fill="url(#linear-gradient)"/>
  <path id="Ellipse_2" data-name="Ellipse 2" d="M10.2,3.19A5.322,5.322,0,1,1,3.19.448,5.322,5.322,0,0,1,10.2,3.19Z" transform="translate(12.344 21.297)" fill="url(#linear-gradient-2)"/>
  <path id="Ellipse_2.2" data-name="Ellipse 2.2" d="M3.455.8a1.444,1.444,0,0,1-.285,2.292,2.277,2.277,0,0,1-2.735-.55A1.444,1.444,0,0,1,.72.246,2.277,2.277,0,0,1,3.455.8Z" transform="translate(51.59 9.601)" fill="url(#linear-gradient-3)"/>
  <path id="Ellipse_2.3" data-name="Ellipse 2.3" d="M3.035.083c1.053.367,1.5,1.845.988,3.3S2.251,5.725,1.2,5.358-.3,3.513.21,2.057,1.982-.284,3.035.083Z" transform="translate(64.232 35.176)" fill="url(#linear-gradient-4)"/>
  <path id="Ellipse_2.4" data-name="Ellipse 2.4" d="M5.552.8C5.62,1.4,4.433,2.021,2.9,2.2S.071,2.033,0,1.439,1.122.222,2.655.046,5.484.21,5.552.8Z" transform="translate(29.749 0.455)" fill="url(#linear-gradient-5)"/>
  <path id="Ellipse_2.1" data-name="Ellipse 2.1" d="M16.738,5.592c.743,3.87-2.377,7.723-6.968,8.6S.853,12.656.109,8.786,2.486,1.063,7.078.181,15.995,1.722,16.738,5.592Z" transform="translate(31.548 48.883)" fill="url(#linear-gradient-6)"/>
  <path id="Ellipse_3.1" data-name="Ellipse 3.1" d="M7.006.2c.231.472-1.145,1.619-3.073,2.561S.256,4.086.025,3.614,1.17,1.995,3.1,1.053,6.775-.269,7.006.2Z" transform="translate(17.634 1.32)" fill="#c00c14"/>
  <path id="Ellipse_3.2" data-name="Ellipse 3.2" d="M7.055.55c.4.815-.842,2.239-2.77,3.181S.473,4.776.074,3.961.916,1.721,2.844.78,6.657-.265,7.055.55Z" transform="translate(17.888 1.594)" fill="#c00c14"/>
  <path id="Ellipse_3" data-name="Ellipse 3" d="M4.892.026A6.923,6.923,0,0,1,2.569,1.469,6.923,6.923,0,0,1,0,2.415,6.923,6.923,0,0,1,2.326.971,6.923,6.923,0,0,1,4.892.026Z" transform="translate(18.645 1.595)" fill="#400003"/>
  <path id="Ellipse_3.9" data-name="Ellipse 3.9" d="M.522.017c.818-.249,2.306,2.257,3.323,5.6s1.178,6.25.36,6.5S1.9,9.856.882,6.516-.3.266.522.017Z" transform="translate(0 39.683)" fill="url(#linear-gradient-7)"/>
  <path id="Ellipse_3.10" data-name="Ellipse 3.10" d="M1.31.051c1.412-.43,3.381,1.929,4.4,5.269s.7,6.4-.715,6.826S1.611,10.217.594,6.877-.1.481,1.31.051Z" transform="translate(0.288 39.322)" fill="url(#linear-gradient-8)"/>
  <path id="Ellipse_3.11" data-name="Ellipse 3.11" d="M.071,0c.238-.073,1.009,1.765,1.721,4.1s1.1,4.294.859,4.367S1.642,6.708.929,4.369-.168.075.071,0Z" transform="translate(0.325 41.496)" fill="#400104"/>
  <path id="Ellipse_3.12" data-name="Ellipse 3.12" d="M0,.7C.032.251,2.887-.06,6.376.01s6.292.493,6.26.946S9.749,1.72,6.26,1.65-.032,1.158,0,.7Z" transform="translate(29.699 67.285)" fill="url(#linear-gradient-9)"/>
  <path id="Ellipse_3.13" data-name="Ellipse 3.13" d="M0,1.3C.056.514,2.929-.064,6.419.006s6.273.759,6.217,1.541S9.707,2.906,6.218,2.837-.054,2.077,0,1.3Z" transform="translate(29.741 66.098)" fill="url(#linear-gradient-10)"/>
  <path id="Ellipse_3.14" data-name="Ellipse 3.14" d="M0,.167A20.914,20.914,0,0,1,4.442.016,20.484,20.484,0,0,1,8.849.342,20.914,20.914,0,0,1,4.408.493,20.484,20.484,0,0,1,0,.167Z" transform="translate(31.356 68.198)" fill="#150303"/>
  <path id="Ellipse_3.3" data-name="Ellipse 3.3" d="M.311,10.084C-.369,9.774.1,7.273,1.368,4.5S4.208-.278,4.888.032,5.1,2.843,3.831,5.618.991,10.393.311,10.084Z" transform="translate(65.331 43.926)" fill="url(#linear-gradient-11)"/>
  <path id="Ellipse_3.4" data-name="Ellipse 3.4" d="M.834,10.145C-.339,9.611-.266,6.927,1,4.152S4.238-.441,5.412.093s1.1,3.218-.164,5.994S2.008,10.68.834,10.145Z" transform="translate(63.914 43.458)" fill="url(#linear-gradient-12)"/>
  <path id="Ellipse_3.5" data-name="Ellipse 3.5" d="M.04,7.044C-.158,6.954.4,5.3,1.285,3.361S3.048-.086,3.246,0,2.887,1.743,2,3.687.238,7.134.04,7.044Z" transform="translate(66.724 45.862)" fill="#130406"/>
  <path id="Ellipse_3.6" data-name="Ellipse 3.6" d="M4,5.726c-.385.262-1.564-.8-2.635-2.368S-.263.3.122.04s1.564.8,2.635,2.368S4.383,5.464,4,5.726Z" transform="translate(61.827 9.759)" fill="url(#linear-gradient-13)"/>
  <path id="Ellipse_3.7" data-name="Ellipse 3.7" d="M4.219,5.8c-.664.453-2.07-.453-3.14-2.024S-.321.569.343.116,2.413.57,3.483,2.14,4.883,5.35,4.219,5.8Z" transform="translate(61.101 10.027)" fill="url(#linear-gradient-14)"/>
  <path id="Ellipse_3.8" data-name="Ellipse 3.8" d="M2.73,3.987c-.112.076-.81-.753-1.56-1.853A6.132,6.132,0,0,1,.015,0c.112-.076.81.753,1.56,1.853A6.132,6.132,0,0,1,2.73,3.987Z" transform="translate(62.87 10.543)" fill="#3d0002"/>
  <path id="Ellipse_4" data-name="Ellipse 4" d="M6.652,3.326A3.326,3.326,0,1,1,3.326,0,3.326,3.326,0,0,1,6.652,3.326Z" transform="translate(37.624 26.62)" fill="#91080d"/>
  <path id="Ellipse_4.3" data-name="Ellipse 4.3" d="M4.817,5.357c-.835.719-2.484.174-3.683-1.217S-.36,1.037.475.317,2.959.143,4.158,1.535,5.652,4.638,4.817,5.357Z" transform="translate(10.721 48.893)" fill="#79080d"/>
  <path id="Ellipse_4.1" data-name="Ellipse 4.1" d="M6.652,2c0,1.1-1.489,2-3.326,2S0,3.1,0,2,1.489,0,3.326,0,6.652.893,6.652,2Z" transform="translate(34.963 5.333)" fill="#bd0c14"/>
  <path id="Ellipse_4.2" data-name="Ellipse 4.2" d="M5.336.467c.725.831.19,2.483-1.194,3.691S1.048,5.671.323,4.841.133,2.358,1.517,1.15,4.611-.363,5.336.467Z" transform="translate(55.909 48.944)" fill="#580508"/>
</svg>
