<svg id="logo" xmlns="http://www.w3.org/2000/svg" width="164.637" height="43.832" viewBox="0 0 164.637 43.832">
  <path id="Path_1" data-name="Path 1" d="M56.4,30V14.788h4.828v3.188a4.269,4.269,0,0,1,4.2-3.44,5.308,5.308,0,0,1,1.262.126v4.481a13.466,13.466,0,0,0-1.452-.095q-4.008,0-4.008,5.081V30Zm24.278-1.8a8.273,8.273,0,0,1-6.122,2.272A8.381,8.381,0,0,1,68.405,28.2a7.806,7.806,0,0,1-2.3-5.807,7.7,7.7,0,0,1,2.3-5.775,8.381,8.381,0,0,1,6.154-2.272,8.273,8.273,0,0,1,6.122,2.272,7.7,7.7,0,0,1,2.3,5.775A7.806,7.806,0,0,1,80.682,28.2Zm-6.122-1.83a3.362,3.362,0,0,0,2.651-1.1,4.17,4.17,0,0,0,.978-2.872,4.17,4.17,0,0,0-.978-2.872,3.362,3.362,0,0,0-2.651-1.1,3.4,3.4,0,0,0-2.682,1.1,4.258,4.258,0,0,0-.947,2.872,4.258,4.258,0,0,0,.947,2.872A3.4,3.4,0,0,0,74.559,26.371Zm16.776,4.1A8.018,8.018,0,0,1,85.4,28.264a8,8,0,0,1-2.209-5.87A7.893,7.893,0,0,1,85.4,16.556a8.018,8.018,0,0,1,5.933-2.209,8.588,8.588,0,0,1,5.491,1.673,6.331,6.331,0,0,1,2.4,4.545H94.4a2.748,2.748,0,0,0-3.03-2.146A3.054,3.054,0,0,0,88.9,19.459a4.405,4.405,0,0,0-.884,2.935,4.405,4.405,0,0,0,.884,2.935,3.054,3.054,0,0,0,2.462,1.041q2.493,0,3.03-2.02h4.829a6.277,6.277,0,0,1-2.4,4.481A8.7,8.7,0,0,1,91.335,30.473ZM115.655,30h-5.9l-4.828-6.6V30H100.1V7.909h4.829V21.132l4.954-6.343h5.681l-6.059,7.2Zm14.026-8.395a19.629,19.629,0,0,1-.127,2.114H118.319a3.07,3.07,0,0,0,1.01,2.3,3.771,3.771,0,0,0,2.557.821q2.208,0,2.84-1.42h4.734A5.293,5.293,0,0,1,127,29.085a9.01,9.01,0,0,1-5.112,1.389,8.486,8.486,0,0,1-6.123-2.146,7.826,7.826,0,0,1-2.241-5.933,7.743,7.743,0,0,1,2.241-5.87,9.219,9.219,0,0,1,11.709-.158A6.773,6.773,0,0,1,129.681,21.605Zm-11.362-.884h6.6a3.261,3.261,0,0,0-.852-2.335,3.2,3.2,0,0,0-2.367-.821,3.392,3.392,0,0,0-2.461.884A3.114,3.114,0,0,0,118.319,20.722Zm20.153,5.523a12.194,12.194,0,0,0,1.673-.095V30a18.176,18.176,0,0,1-3.219.253,9.892,9.892,0,0,1-1.452-.095,6.469,6.469,0,0,1-1.42-.41,3.689,3.689,0,0,1-1.294-.915,4.949,4.949,0,0,1-.884-1.641,8.24,8.24,0,0,1-.347-2.525V18.607h-2.4V14.788h2.4V10.276h4.829v4.513h3.44v3.819h-3.44v5.049a2.985,2.985,0,0,0,.536,2.083A2.223,2.223,0,0,0,138.472,26.244ZM159.84,14.788h4.8V36.312h-4.829V28.674h.032v-.82a4.791,4.791,0,0,1-1.957,1.862,5.976,5.976,0,0,1-2.872.694,6.545,6.545,0,0,1-5.238-2.241,8.545,8.545,0,0,1-1.925-5.775,8.4,8.4,0,0,1,1.988-5.744,6.623,6.623,0,0,1,5.239-2.272,5.855,5.855,0,0,1,2.871.694,4.562,4.562,0,0,1,1.894,1.894ZM156.4,26.4a3.3,3.3,0,0,0,2.683-1.136,4.335,4.335,0,0,0,.946-2.872,4.287,4.287,0,0,0-.946-2.84,3.3,3.3,0,0,0-2.683-1.136,3.422,3.422,0,0,0-2.651,1.1,4.172,4.172,0,0,0-.978,2.872,4.292,4.292,0,0,0,.978,2.9A3.422,3.422,0,0,0,156.4,26.4Z" fill="#fff"/>
  <path id="Path_2" data-name="Path 2" d="M146.158,29.4a2.943,2.943,0,0,1-2.209.915,3.072,3.072,0,0,1-3.124-3.093,2.96,2.96,0,0,1,.884-2.178,3.047,3.047,0,0,1,2.24-.915,2.943,2.943,0,0,1,2.209.915,2.905,2.905,0,0,1,.916,2.178A2.972,2.972,0,0,1,146.158,29.4Z" fill="#fff"/>
  <rect id="Rectangle_7" data-name="Rectangle 7" width="43.832" height="43.832" rx="7.89"/>
  <g id="Group_1" data-name="Group 1">
    <path id="Path_3" data-name="Path 3" d="M33.258,32.413H29.349a.316.316,0,0,1-.312-.291q-.007-.077-.015-.15a4.255,4.255,0,0,0-4.463-3.549c-1.489.181-2.723,1.306-4.214,1.474a9.033,9.033,0,0,1-2.885-.135,8.444,8.444,0,0,1-2.508-.926,8.937,8.937,0,0,1-3.741-3.7,8.219,8.219,0,0,1-1.045-3,9.994,9.994,0,0,1-.011-2.5A9.029,9.029,0,0,1,11.4,15.956,8.859,8.859,0,0,1,15.062,12.5a8.631,8.631,0,0,1,2.268-.843,8.95,8.95,0,0,1,5.246.3,8.8,8.8,0,0,1,3.26,2.016c2.188,2.076,2.355,5.333,2.41,8.349a.444.444,0,0,1-.526.441,9.85,9.85,0,0,0-3.651-.053.521.521,0,0,1-.553-.659,4.428,4.428,0,0,0,.1-.445c.392-2.335-1.205-5-3.562-5.23a4.32,4.32,0,0,0-3.641,1.51,3.77,3.77,0,0,0-1.011,2.34A4.457,4.457,0,0,0,19.5,25.044a3.614,3.614,0,0,0,1.354-.2c1.425-.483,2.815-1.205,4.316-1.092,4.515.34,7.686,2.375,8.52,8.168A.432.432,0,0,1,33.258,32.413Z" fill="#fff"/>
  </g>
</svg>
