<svg id="rocket" xmlns="http://www.w3.org/2000/svg" xmlns:xlink="http://www.w3.org/1999/xlink" width="55.168" height="51.672" viewBox="0 0 55.168 51.672">
  <defs>
    <linearGradient id="linear-gradient" y1="0.988" x2="0.997" gradientUnits="objectBoundingBox">
      <stop offset="0" stop-color="#f67c01"/>
      <stop offset="1" stop-color="#bb5e00"/>
    </linearGradient>
    <linearGradient id="linear-gradient-2" x1="0.411" y1="0.227" x2="0.786" y2="0.634" gradientUnits="objectBoundingBox">
      <stop offset="0.214" stop-color="#d2cece"/>
      <stop offset="1" stop-color="#393535"/>
    </linearGradient>
    <linearGradient id="linear-gradient-4" x1="0.22" y1="0.227" x2="0.819" y2="0.705" gradientUnits="objectBoundingBox">
      <stop offset="0" stop-color="#404040"/>
      <stop offset="1"/>
    </linearGradient>
    <linearGradient id="linear-gradient-5" x1="0.753" y1="0.817" x2="0.275" y2="0.086" gradientUnits="objectBoundingBox">
      <stop offset="0"/>
      <stop offset="1" stop-color="#7a7a7a"/>
    </linearGradient>
    <linearGradient id="linear-gradient-6" x1="0.06" y1="0.025" x2="0.991" y2="1.013" gradientUnits="objectBoundingBox">
      <stop offset="0" stop-color="#8c8b8b"/>
      <stop offset="1"/>
    </linearGradient>
    <linearGradient id="linear-gradient-7" x2="1.335" y2="1.272" gradientUnits="objectBoundingBox">
      <stop offset="0.188" stop-color="#fff"/>
      <stop offset="1" stop-color="#393535"/>
    </linearGradient>
    <linearGradient id="linear-gradient-8" x2="1.275" y2="1.223" gradientUnits="objectBoundingBox">
      <stop offset="0.135" stop-color="#fff"/>
      <stop offset="1" stop-color="#393535"/>
    </linearGradient>
    <linearGradient id="linear-gradient-9" x1="0.854" y1="0.912" x2="0.113" y2="0.131" gradientUnits="objectBoundingBox">
      <stop offset="0.089" stop-color="#212121"/>
      <stop offset="1" stop-color="#606060"/>
    </linearGradient>
  </defs>
  <g id="Flame" transform="translate(0 36.227)">
    <path id="Vector" d="M13.157,1.071s2.837,1.242,3.376,5.63a3.742,3.742,0,0,1-1.409,3.15c-.936.965-2.321.968-3.159,1.956.579-.935.41-2.048,1.4-2.794a3.5,3.5,0,0,0-2.437,3.123,2.5,2.5,0,0,1-2.4,2.55c.809-.652.535-1.55.5-2.441A2.019,2.019,0,0,1,7.217,14a4.486,4.486,0,0,0-2.452,1.44c.436-1.532-.314-2.363,1.545-3.087,1.02-.389,2.147-1.112,1.329-2.38C7.363,12.2,5.5,11.5,4,12.191c-1.062.507-.847,1.343-1.441,2.139A3.005,3.005,0,0,1,0,15.253c1.555-.434,1.166-2.186,1.534-3.423.414-1.434,2.3-1.761,3.088-3.046-.7-1.147-1.392.241-1.681.708-.474.72-1.086,1.416-2.105,1.033,2.4-.769.769-3.661,2.5-4.8.665-.438,2.349.24,2.686-.543.526-1.194-1.549-.575-1.992-.27A2.31,2.31,0,0,1,5.3,3.319c.822-.394,1.4.136,2.118,0,.955-.173,1.045-1.378-.023-1.406-.4-.01-1.225.661-1.7.806A5.305,5.305,0,0,1,9.026.091C10.658-.262,11.787.48,13.157,1.071Z" transform="translate(0 0)" fill="url(#linear-gradient)"/>
    <path id="Vector-2" data-name="Vector" d="M6.5.866a3.83,3.83,0,0,1,.527.756,2.2,2.2,0,0,1-.167,2.856c-.479.4-1.042.287-1.555.57-.542.293-.567.889-.856,1.348a5.625,5.625,0,0,0-.1-.905,1.109,1.109,0,0,1,0-.587c-.207.344-.243.748-.469,1.092a2,2,0,0,1-1.185.7,4.888,4.888,0,0,1-1.462.187A2.029,2.029,0,0,0,.551,6.9C.3,7.016.2,7.255,0,7.426c.114-.663.157-1,.858-1.184.72-.185.756-.81,1.227-1.257-.405.255-.921.375-1.2-.157.855.278,1.209-.353,1.326-1.092.126-.711.1-1.336.683-1.83-.356-.013-.535.36-.756.569a1.759,1.759,0,0,1-.892.385.684.684,0,0,0,.12-.114c.135-.239.383-.4.518-.639a6.264,6.264,0,0,0,.3-.69A2.769,2.769,0,0,1,3.314.255,2.866,2.866,0,0,1,6.217.6L6.3.672A1.919,1.919,0,0,1,6.5.866Z" transform="translate(7.443 1.738)" fill="#ffc929"/>
    <path id="Vector-3" data-name="Vector" d="M3.782.694a1.469,1.469,0,0,1,.342,1.143c-.017.535-.51.913-.859,1.265a1.262,1.262,0,0,0,.082-.5c-.188.209-.365.127-.577.248s-.34.4-.548.54c.1-.232-.163-.474,0-.684-.226.085-.146.368-.3.506a3.453,3.453,0,0,1-.582.253c.017-.056.411-.61.112-.456-.057.034-.107.242-.19.311a.936.936,0,0,1-.268.1,2.656,2.656,0,0,0-.584.095,1.054,1.054,0,0,0-.414.5c.115-.369.044-.611.366-.856A1.7,1.7,0,0,0,.7,2.774a2.477,2.477,0,0,1,.343-.306c-.4-.1-.471.328-.8.42.187-.147.13-.363.191-.561A.8.8,0,0,1,.848,1.87c.139-.062.5-.005.48-.235C1.308,1.364.922,1.51.808,1.6a.667.667,0,0,1,.464-.44c.2-.04.4.068.5-.163-.168-.24-.408,0-.637-.014.327-.261.477-.822.99-.72.137.03.467.346.487.107C2.625.174,2.281.031,2.133.052A1.652,1.652,0,0,1,3.717.626Z" transform="translate(10.412 2.171)" fill="#f9f079"/>
  </g>
  <g id="Group_2" data-name="Group 2" transform="translate(1.79 0)">
    <path id="Vector-4" data-name="Vector" d="M1.217,0Q.6,1.041.059,2.009c-.36.644.98,2.776,2.365,4.231s3.941,3.438,4.6,3.112S8.379,8.677,9.094,8.3Z" transform="translate(8.356 33.702)" fill="url(#linear-gradient-2)"/>
    <path id="Vector-5" data-name="Vector" d="M19.665,32.859C28.1,27.454,36.554,20.267,40.5,10.083L30.931,0c-10.376,3.405-18,11.471-23.837,19.611L1.487,28.157C.972,29,.479,29.81,0,30.606l8.313,8.762c.819-.438,1.658-.887,2.523-1.357ZM30.087,10.382a2.909,2.909,0,1,1-4.112-.108A2.935,2.935,0,0,1,30.087,10.382Z" transform="translate(10.192 2.072)" fill="url(#linear-gradient-2)"/>
    <path id="Vector-6" data-name="Vector" d="M4.723,7.458,3.876,5.151,12.7,0c-.316,1.678-.821,8.346-.821,8.346L1.845,16.74,0,14.8Z" transform="translate(17.152 34.932)" fill="url(#linear-gradient-4)"/>
    <path id="Vector-7" data-name="Vector" d="M8.909.382S15.593.226,17.286,0L11.679,8.546,9.42,7.58,1.845,11.911,0,9.967Z" transform="translate(0 21.684)" fill="url(#linear-gradient-5)"/>
    <path id="Vector-8" data-name="Vector" d="M8.752,10.931A74.029,74.029,0,0,0,11,.01a74.657,74.657,0,0,0-11,1.7Z" transform="translate(42.37 0)" fill="url(#linear-gradient-6)"/>
    <path id="Vector-9" data-name="Vector" d="M0,1.024l7.877,8.3,1.055-.564L.619,0Z" transform="translate(9.573 32.678)" fill="url(#linear-gradient-7)"/>
    <path id="Vector-10" data-name="Vector" d="M0,.365,9.567,10.448,10,9.224,1.247,0Z" transform="translate(41.123 1.708)" fill="url(#linear-gradient-8)"/>
    <path id="Vector-11" data-name="Vector" d="M4.9,5.008A2.935,2.935,0,0,0,5.007.9,2.935,2.935,0,0,0,.9.788,2.937,2.937,0,0,0,.787,4.9,2.937,2.937,0,0,0,4.9,5.008Z" transform="translate(35.273 11.558)" fill="url(#linear-gradient-9)"/>
  </g>
</svg>
