<svg id="Spaceman" xmlns="http://www.w3.org/2000/svg" xmlns:xlink="http://www.w3.org/1999/xlink" width="59.204" height="91.375" viewBox="0 0 59.204 91.375">
  <defs>
    <linearGradient id="linear-gradient" x1="0.768" y1="0.117" x2="0" y2="0.835" gradientUnits="objectBoundingBox">
      <stop offset="0" stop-color="#778186"/>
      <stop offset="1" stop-color="#474b4c"/>
    </linearGradient>
    <linearGradient id="linear-gradient-2" x1="0.799" y1="0.108" x2="0.033" y2="0.866" gradientUnits="objectBoundingBox">
      <stop offset="0" stop-color="#c1c1c1"/>
      <stop offset="1" stop-color="#929292"/>
    </linearGradient>
    <linearGradient id="linear-gradient-3" x1="0.679" y1="0.037" x2="0.452" y2="1.03" gradientUnits="objectBoundingBox">
      <stop offset="0" stop-color="#d4853f"/>
      <stop offset="1" stop-color="#d79962"/>
    </linearGradient>
    <linearGradient id="linear-gradient-4" x1="0.488" x2="0" y2="2.893" gradientUnits="objectBoundingBox">
      <stop offset="0" stop-color="#a25d21"/>
      <stop offset="1" stop-color="#d79962"/>
    </linearGradient>
    <linearGradient id="linear-gradient-5" x1="0.997" x2="0" y2="14.321" gradientUnits="objectBoundingBox">
      <stop offset="0" stop-color="#995316"/>
      <stop offset="1" stop-color="#d79962"/>
    </linearGradient>
    <linearGradient id="linear-gradient-6" x1="0.415" y1="0.415" x2="0.548" y2="0.384" gradientUnits="objectBoundingBox">
      <stop offset="0" stop-color="#6a4222"/>
      <stop offset="1" stop-color="#d58947"/>
    </linearGradient>
    <linearGradient id="linear-gradient-7" x1="0.402" y1="0.712" x2="0.437" y2="0.973" gradientUnits="objectBoundingBox">
      <stop offset="0" stop-color="#d48845"/>
      <stop offset="1" stop-color="#4e3219"/>
    </linearGradient>
    <linearGradient id="linear-gradient-8" x1="0.914" y1="0.123" x2="0.989" y2="0.11" gradientUnits="objectBoundingBox">
      <stop offset="0" stop-color="#d48641" stop-opacity="0"/>
      <stop offset="1" stop-color="#4e3219"/>
    </linearGradient>
    <linearGradient id="linear-gradient-9" x1="0.091" y1="0.045" x2="0.698" y2="1.003" gradientUnits="objectBoundingBox">
      <stop offset="0" stop-color="#d58a49"/>
      <stop offset="1" stop-color="#281709"/>
    </linearGradient>
    <linearGradient id="linear-gradient-10" x1="0.039" y1="0.362" x2="0.809" y2="0.503" gradientUnits="objectBoundingBox">
      <stop offset="0" stop-color="#9f9f9f"/>
      <stop offset="1" stop-color="#787877"/>
    </linearGradient>
    <linearGradient id="linear-gradient-11" y1="0.436" x2="0.636" y2="0.455" gradientUnits="objectBoundingBox">
      <stop offset="0" stop-color="#cbcbcb"/>
      <stop offset="1" stop-color="#828380"/>
    </linearGradient>
    <linearGradient id="linear-gradient-12" x1="0.029" y1="0.512" x2="0.981" y2="0.539" gradientUnits="objectBoundingBox">
      <stop offset="0" stop-color="#1b0a5d"/>
      <stop offset="0.391" stop-color="#1b0a5d"/>
      <stop offset="0.971" stop-color="#010005"/>
    </linearGradient>
    <linearGradient id="linear-gradient-13" x1="1.007" y1="0.065" x2="0.217" y2="0.53" gradientUnits="objectBoundingBox">
      <stop offset="0" stop-color="#fff9ff" stop-opacity="0.361"/>
      <stop offset="1" stop-color="#1b0a5d" stop-opacity="0"/>
    </linearGradient>
    <linearGradient id="linear-gradient-14" x1="0.004" y1="0.501" x2="1.004" y2="0.545" gradientUnits="objectBoundingBox">
      <stop offset="0" stop-color="#5b5c59"/>
      <stop offset="1" stop-color="#3f403e"/>
    </linearGradient>
  </defs>
  <path id="Rectangle_11" data-name="Rectangle 11" d="M18.469,0l.192.042S15.25,2.68,15.02,5.1a4.124,4.124,0,0,0,.187,2.2c.573,1.453,1.82,1.66,3.187,2.416,1.549.856,2.751.61,4.269,1.52,1.2.72,2.233,1,2.746,2.3a3.315,3.315,0,0,1,.178,2.753c-.546,1.328-1.557,1.8-2.93,2.22a7.724,7.724,0,0,1-2.93.266c-5.528-.32-6.633-7.491-12.166-7.282-2.218.084-3.867-.2-5.5,1.452a5.184,5.184,0,0,0-1.608,4.5c.083,2.108,1.356,3.014,2.485,4.8,1.427,2.251,3.1,2.929,4.262,5.328A7.9,7.9,0,0,1,8.448,31.3a6.653,6.653,0,0,1-.533,2.664c-.777,2.192-3.823,5.064-3.823,5.064l-.279-.575s2.874-2.428,3.658-4.578A6.137,6.137,0,0,0,8,31.388c-.015-1.514-.654-2.287-1.332-3.641C5.487,25.385,3.888,24.667,2.5,22.42,1.351,20.566.078,19.6.006,17.426a5.829,5.829,0,0,1,1.782-4.774c1.626-1.662,3.545-1.533,5.95-1.6,5.535-.15,6.631,7.137,12.166,7.282a6.54,6.54,0,0,0,2.664-.178c1.195-.408,2.112-.78,2.575-1.954a3.051,3.051,0,0,0,0-2.288c-.439-1.411-1.494-1.822-2.753-2.6-1.375-.846-2.478-.592-3.915-1.328-1.48-.759-2.837-.946-3.455-2.49a4.29,4.29,0,0,1-.178-2.4C15.118,2.674,18.469,0,18.469,0Z" transform="translate(33.389)" fill="#ddd"/>
  <g id="Group_5" data-name="Group 5" transform="translate(0 7.637)">
    <path id="Rectangle_11.45" data-name="Rectangle 11.45" d="M.636,1.243l1.6.622L7.384,0s1.06.886,1.687,1.51a5.146,5.146,0,0,1,1.154,1.243c.127.231.347.37.266.622-.068.211-.237.274-.444.355a1.245,1.245,0,0,1-.71,0c-.646-.085-1.421-.71-1.687-.533s-.294.6-.444,1.154.916,2.08.444,3.286c-.13.333-.124.641-.444.8a.876.876,0,0,1-.71,0c-.495-.145-.581-.562-.888-.977a10.288,10.288,0,0,1-1.066-2.22A15.229,15.229,0,0,1,4.987,7.1a3.054,3.054,0,0,1,.089,1.332c-.065.256-.045.477-.266.622a.7.7,0,0,1-.444.089.918.918,0,0,1-.444-.089c-.291-.134-.358-.354-.533-.622A5.063,5.063,0,0,1,2.944,7.37c-.373-.926-.888-2.4-.888-2.4a12.545,12.545,0,0,1,0,2.664c-.053.315.092.628-.178.8a.574.574,0,0,1-.355.089.724.724,0,0,1-.355-.089c-.339-.161-.361-.466-.533-.8A4.4,4.4,0,0,1,.192,6.216,8.591,8.591,0,0,1,.014,3.907,6.444,6.444,0,0,1,.192,2.486,9.86,9.86,0,0,1,.636,1.243Z" transform="translate(3.477 51.859)" fill="silver"/>
    <path id="Rectangle_11.46" data-name="Rectangle 11.46" d="M0,11.278S5.645,5.195,10.3,2.93C15.274.512,24.154,0,24.154,0a80.939,80.939,0,0,1,5.328,8.88c2.59,5.5,4.44,14.918,4.44,14.918L14.474,35.254a104.792,104.792,0,0,1-7.992-10.39A104.858,104.858,0,0,1,0,11.278Z" transform="translate(5.534 16.961)" fill="#cacaca"/>
    <path id="Subtract" d="M10.3,2.93C5.645,5.195,0,11.278,0,11.278A104.854,104.854,0,0,0,6.482,24.864a104.8,104.8,0,0,0,7.992,10.39l3.375,1.066A104.787,104.787,0,0,1,9.857,25.93,104.854,104.854,0,0,1,3.374,12.343S9.019,6.261,13.675,4c4.973-2.418,13.853-2.93,13.853-2.93a80.929,80.929,0,0,1,5.328,8.88c2.393,5.08,4.153,13.5,4.408,14.76l.032-.019S36.144,16.095,33.922,11.1C32.033,6.855,27.528,1.066,27.528,1.066L24.154,0S15.273.512,10.3,2.93Z" transform="translate(2.159 15.895)" fill="#acaaaa"/>
    <path id="Subtract-2" data-name="Subtract" d="M0,0A104.854,104.854,0,0,0,6.482,13.586a104.8,104.8,0,0,0,7.992,10.39l3.375,1.066a104.787,104.787,0,0,1-7.992-10.39A104.854,104.854,0,0,1,3.374,1.066Z" transform="translate(2.159 27.173)" fill="#bbb8b8"/>
    <path id="Rectangle_11.47" data-name="Rectangle 11.47" d="M0,0A10.288,10.288,0,0,0,1.066,2.22c.307.414.393.832.888.977a.876.876,0,0,0,.71,0c.249-.123.06-.384-.089-.533s-.347.011-.533-.089c-.315-.168-.256-.5-.444-.8-.223-.36-.409-.522-.622-.888C.821.62.869.365.622.178A1.434,1.434,0,0,0,0,0Z" transform="translate(8.02 57.099)" fill="#d6d6d6"/>
    <path id="Rectangle_11.48" data-name="Rectangle 11.48" d="M0,0S.515,1.471.888,2.4a5.063,5.063,0,0,0,.444,1.066c.175.268.242.488.533.622a.918.918,0,0,0,.444.089c.177,0,.1-.213.089-.355-.019-.27.071-.314-.089-.533-.239-.326-.37-.265-.561-.622-.235-.438-.467-.974-.683-1.421C.9.894,1.061.642.8.355A1.339,1.339,0,0,0,0,0Z" transform="translate(5.533 56.832)" fill="#d6d6d6"/>
    <path id="Rectangle_11.49" data-name="Rectangle 11.49" d="M.636,0A9.86,9.86,0,0,0,.192,1.243,6.444,6.444,0,0,0,.014,2.664,8.591,8.591,0,0,0,.192,4.973,4.4,4.4,0,0,0,.636,6.394c.172.333.194.639.533.8a.724.724,0,0,0,.355.089A18.274,18.274,0,0,1,.991,5.328a5.7,5.7,0,0,1-.178-1.6,4.1,4.1,0,0,1,.355-1.51A7.69,7.69,0,0,1,2.234.622Z" transform="translate(3.477 53.102)" fill="#d6d6d6"/>
    <path id="Rectangle_2.13" data-name="Rectangle 2.13" d="M0,6.216a9.678,9.678,0,0,0,2.22,0A12.564,12.564,0,0,0,6.127,5.15a16.861,16.861,0,0,0,1.776-.8A18.685,18.685,0,0,0,11.011,2.4,11.246,11.246,0,0,0,13.764,0c1.161.34,1.411,2.34,1.776,2.753.56,1.471-2.1.779-3.286,1.865A11.214,11.214,0,0,1,8.436,6.926,14.814,14.814,0,0,1,4.085,8.081,9.868,9.868,0,0,0,1.066,9.146,7.177,7.177,0,0,1,0,6.216Z" transform="translate(10.95 18.648)" fill="url(#linear-gradient)"/>
    <path id="Rectangle_11.50" data-name="Rectangle 11.50" d="M1.122,1.066A4.895,4.895,0,0,0,1.122,0L7.338,1.6l-.444,1.51s2.327,2.5,2.664,4.529C9.736,8.7,9.23,11.1,7.693,11.1c-2.753,0-3.842-1.245-5.417-3.108C.871,6.33-.447,4.936.145,2.842.361,2.08.987,1.846,1.122,1.066Z" transform="translate(38.066 63.936)" fill="silver"/>
    <path id="Rectangle_11.51" data-name="Rectangle 11.51" d="M2.583,0,2.139,1.51S4.466,4.014,4.8,6.038c0,0-.51-.887-.888-1.421A4.277,4.277,0,0,0,2.849,3.286c-.595-.413-1.185-.114-1.776-.533A2.005,2.005,0,0,1,.008,1.332,2.906,2.906,0,0,1,.363,0Z" transform="translate(42.822 65.534)" fill="#9c9c9c"/>
    <path id="Rectangle_11.52" data-name="Rectangle 11.52" d="M1.122,1.066C.987,1.846.361,2.08.145,2.842-.447,4.936.871,6.33,2.277,7.992,3.851,9.855,4.941,11.1,7.693,11.1a11.31,11.31,0,0,1-2.93-1.154A7.262,7.262,0,0,1,2.454,7.37a5.584,5.584,0,0,1-.977-2.042,3.248,3.248,0,0,1,0-1.954c.185-.547.569-.714.8-1.243A7.237,7.237,0,0,0,2.632.8L1.122,0A4.895,4.895,0,0,1,1.122,1.066Z" transform="translate(38.066 63.936)" fill="#d6d6d6"/>
    <path id="Rectangle_2.14" data-name="Rectangle 2.14" d="M0,6.3a7.778,7.778,0,0,0,2.558.178,12.844,12.844,0,0,0,3.978-.977,16.861,16.861,0,0,0,1.776-.8A20.746,20.746,0,0,0,11.6,2.664,10.388,10.388,0,0,0,14.51,0a4.076,4.076,0,0,1,.569,1.421,17.889,17.889,0,0,1-2.486,3.286A11.214,11.214,0,0,1,8.774,7.015,14.814,14.814,0,0,1,4.423,8.17a13.47,13.47,0,0,1-3.73-.355C.515,7.814.088,6.838,0,6.3Z" transform="translate(11.075 19.358)" fill="url(#linear-gradient-2)"/>
    <path id="Rectangle_11.53" data-name="Rectangle 11.53" d="M0,4.276A5.188,5.188,0,0,0,.977,4.1a3.169,3.169,0,0,0,.977-.533,7.518,7.518,0,0,0,.888-.888C3.891,1.646,5.594.1,5.594.1A1.014,1.014,0,0,1,6.127.014.654.654,0,0,1,6.482.28.722.722,0,0,1,6.66.635a1.09,1.09,0,0,1-.089.533c-.225.925-1.332,2-1.154,2.131l.178.089c.178,0,1.028-.847,1.776-1.243A3.907,3.907,0,0,1,8.347,1.7c.371-.1.654-.3.977-.089a.8.8,0,0,1,.355.533,1.217,1.217,0,0,1,0,.533C9.547,3.823,7.361,4.365,7.548,4.72c.058.111.066.21.178.266A3.96,3.96,0,0,0,9.146,4.9c.723-.132,1.044-.561,1.776-.622a1.329,1.329,0,0,1,.622,0c.256.087.478.179.533.444.045.215-.075.339-.178.533a2.081,2.081,0,0,1-.71.71,4.985,4.985,0,0,1-1.421.71c-.834.339-1.431.187-2.22.622-.371.2-.888.2-.888.622,0,.622,1.773.89,1.954,1.954.052.308.182.546,0,.8s-.418.218-.71.266c-.725.12-1.07-.417-1.776-.622a9.862,9.862,0,0,0-1.954-.444,13.567,13.567,0,0,0-1.865,0L2.042,5.608Z" transform="translate(46.292 13.395)" fill="silver"/>
    <path id="Rectangle_11.54" data-name="Rectangle 11.54" d="M.447.661C1.17.529,1.491.1,2.223.04a1.329,1.329,0,0,1,.622,0c.256.087.478.179.533.444S3,.61,2.756.661c-.274.057-.434.048-.71.089a2.907,2.907,0,0,0-.533.089c-.222.07-.316.183-.533.266-.267.1-.441.274-.71.178C.152,1.241.028,1.228,0,1.105S.093.927.181.839A.684.684,0,0,1,.447.661Z" transform="translate(54.991 17.632)" fill="#d6d6d6"/>
    <path id="Rectangle_11.55" data-name="Rectangle 11.55" d="M.743,1.955c.213-.094.322-.168.533-.266A5.823,5.823,0,0,0,1.9,1.422c.317-.188.4-.425.71-.622.2-.124.4-.073.533-.266.1-.147.411-.237.089-.444S2.623.084,2.252.179a3.016,3.016,0,0,0-.977.444,13.368,13.368,0,0,0-1.155.8.3.3,0,0,0-.089.355A.568.568,0,0,0,.743,1.955Zm0,0C.472,2.075,1.026,1.867.743,1.955Z" transform="translate(52.388 14.917)" fill="#d6d6d6"/>
    <path id="Rectangle_11.56" data-name="Rectangle 11.56" d="M.194,4.276c.329-.205.61-.052.977-.178a3.169,3.169,0,0,0,.977-.533,7.518,7.518,0,0,0,.888-.888C4.086,1.645,5.789.1,5.789.1A1.014,1.014,0,0,1,6.322.014.654.654,0,0,1,6.677.28c.109.135-.58.39-.888.71a7.926,7.926,0,0,0-.71.977c-.309.419-.72.552-.8,1.066-.066.424.409.661.266,1.066a1.029,1.029,0,0,1-.444.533c-.24.174-.441.143-.71.266-.482.22-.632.623-1.154.71C1.3,5.765-.613,4.78.194,4.276Z" transform="translate(46.098 13.395)" fill="#d6d6d6"/>
    <path id="Rectangle_11.57" data-name="Rectangle 11.57" d="M2.733,4.406c.305-.43.812-1.079.812-1.079l3.249.539L8.88,3.108,10.313,0s.346.871.541,1.439a7.249,7.249,0,0,1,.451,1.439,5.333,5.333,0,0,1-.451,2.967,8.972,8.972,0,0,1-2.617,3.6,23.648,23.648,0,0,1-3.429,2.607s-2.457,1.18-3.61.36A2.672,2.672,0,0,1,.116,10.79c-.378-1.239.25-2.03.722-3.237A12.914,12.914,0,0,1,2.733,4.406Z" transform="translate(26.046 71.04)" fill="silver"/>
    <path id="Rectangle_11.58" data-name="Rectangle 11.58" d="M5.5,0s.346.871.541,1.439A7.249,7.249,0,0,1,6.5,2.877a5.333,5.333,0,0,1-.451,2.967,8.972,8.972,0,0,1-2.617,3.6A23.648,23.648,0,0,1,0,12.048s.983-.885,1.585-1.481c.645-.639.941-.958,1.6-1.687A7.766,7.766,0,0,0,4.516,7.1c.509-.96,1.17-1.643.8-2.664-.243-.669-.992-.666-1.243-1.332C3.6,1.858,5.5,0,5.5,0Z" transform="translate(30.855 71.04)" fill="#9c9c9c"/>
    <path id="Rectangle_11.59" data-name="Rectangle 11.59" d="M2.733,1.285a12.914,12.914,0,0,0-1.9,3.147c-.472,1.207-1.1,2-.722,3.237A2.641,2.641,0,0,0,1.2,9.287c-.044-.278-.134-.132-.222-.686A6.285,6.285,0,0,1,.838,6.824a5.59,5.59,0,0,1,.672-2.042A5.367,5.367,0,0,1,2.733,2.828a5.455,5.455,0,0,1,.812-.622C4.691,1.419,7.014,1.851,6.794.745,6.542-.516,3.545.206,3.545.206S3.038.855,2.733,1.285Z" transform="translate(26.047 74.161)" fill="#d6d6d6"/>
    <path id="Rectangle" d="M8.635,8.937a17.091,17.091,0,0,0,4.44-.355A15.394,15.394,0,0,0,17.338,7.16,13.937,13.937,0,0,0,20.8,4.94a13.13,13.13,0,0,0,2.4-2.575c.355.444.338.647.71.888a1.325,1.325,0,0,0,.355.178c.637.208.948-.46,1.6-.622a10.944,10.944,0,0,1,2.131-.178c1.8-.135,2.816-.135,4.618-.266A36.715,36.715,0,0,0,36.7,2.01C39.237,1.578,40.426.185,43,.056a4.283,4.283,0,0,1,1.332,0c1.127.251,1.535,1.024,2.22,1.954a3.908,3.908,0,0,1,.977,1.865A2.6,2.6,0,0,1,47,6.272c-.718.8-1.669.3-2.664.71-1.121.464-1.5,1.248-2.664,1.6-.77.232-1.264.065-2.042.266-1.4.361-1.945,1.154-3.286,1.687a11.579,11.579,0,0,1-2.486.8,13.036,13.036,0,0,1-1.865.178c-1.384.086-1.51-.355-3.2,0a1.331,1.331,0,0,0,.266.977c.56.811.992,1.176,1.6,1.954,2.188,2.807,2.466,5.11,4.973,7.637a5.164,5.164,0,0,1,.81.777c.34.5.139.968.455,1.487.517.85,1.215.985,2.092,1.454.651.348,1.107.359,1.737.744a8.426,8.426,0,0,1,1.7,1.487c.52.513.748.862,1.265,1.376.728.723,1.352.917,1.976,1.732a5.559,5.559,0,0,1,1.066,2.042A4.7,4.7,0,0,1,47,35.044a8.475,8.475,0,0,1-.622,2.131c-.537,1.868-.67,2.968-1.332,4.8S43.556,44.64,43,46.5c-.265.887.119,1.652-.533,2.309a2.553,2.553,0,0,1-2.042.622,3.825,3.825,0,0,1-2.042-.533,3.586,3.586,0,0,1-1.2-.844c-.47-.506-1.117-.868-1.2-1.554-.266-2.22.136-2.984.622-4.8.24-.9.8-1.293.844-2.22a3.4,3.4,0,0,0-.4-1.865c-1.687-.977-2.664-.977-5.861-1.6-.178,0-.71,0-1.066,1.687a9.65,9.65,0,0,0,.533,3.818c.365,1.417.468,2.239.888,3.641.564,1.882,1.117,2.856,1.776,4.706a10.409,10.409,0,0,1,.8,2.309,5.027,5.027,0,0,1,0,1.776,6.283,6.283,0,0,1-1.243,3.019c-.389.537-.566.939-1.154,1.243a3.632,3.632,0,0,1-1.865.178,7.331,7.331,0,0,1-1.776-.089,3.161,3.161,0,0,1-1.421-.444,3.59,3.59,0,0,1-.888-1.066,16.11,16.11,0,0,1-2.042-3.907,27.218,27.218,0,0,1-1.6-5.417c-.2-.9-.245-1.412-.444-2.309-.389-1.758-.213-2.144-1.066-3.73-.494-.92-1.324-1.925-1.732-2.886-.393-.927-.222-1.628-.666-2.531-.574-1.166-.533,0-1.865-2.664-1.195-2.389-2.664-3.375-3.374-5.95-.123-.446-.171-.7-.266-1.154-.117-.552-.157-.867-.266-1.421-.3-1.535-.444-3.286-.888-3.907a2.44,2.44,0,0,0-.444,0c-1.421.072-.243,5.318-1.6,8.347a9.14,9.14,0,0,0-.71,1.421c-.232.835.182,1.372,0,2.22a4.27,4.27,0,0,1-1.066,2.22,3.585,3.585,0,0,1-1.776,1.243,4.914,4.914,0,0,1-2.309,0,4.062,4.062,0,0,1-1.954-.355A2.345,2.345,0,0,1,.554,34.777c-.279-.673.078-1.141,0-1.865C.482,32.243.306,31.89.2,31.225a4.467,4.467,0,0,1-.178-1.51A9.722,9.722,0,0,1,.377,28.65a6.817,6.817,0,0,0,.178-1.687c.018-.835-.219-1.3-.178-2.131.026-.524.11-.812.178-1.332A20.337,20.337,0,0,1,1,19.859a7,7,0,0,1,.444-1.243,8.159,8.159,0,0,1,.71-1.154c.358-.537.624-.792.977-1.332.764-1.168.86-2.012,1.6-3.2A9.775,9.775,0,0,1,5.7,11.512c.754-.88,1.184-1.587,2.309-1.865.2-.051.377.054.533-.089C8.727,9.392,8.569,9.173,8.635,8.937Z" transform="translate(2.759 17.615)" fill="url(#linear-gradient-3)"/>
    <path id="Rectangle-2" data-name="Rectangle" d="M9.733,14.208a5.164,5.164,0,0,1,.81.777c.34.5.139.968.455,1.487.517.85,1.215.985,2.092,1.454s-3.16-.2-4.867-1.143c-2.04-1.132-2.724-2.484-4-4.44a15.988,15.988,0,0,1-2.22-4.706A21.988,21.988,0,0,1,1.385,4.8C1.042,2.938-1.125,0,.763,0c.177,0-.192,2.341.8,3.108a4.143,4.143,0,0,0,1.332.533,2.087,2.087,0,0,0,.266.977c.56.811.992,1.176,1.6,1.954C6.948,9.378,7.226,11.681,9.733,14.208Z" transform="translate(28.658 25.486)" fill="url(#linear-gradient-4)"/>
    <path id="Rectangle-3" data-name="Rectangle" d="M2.136,3.641c1.687-.355,1.812.086,3.2,0s-1.505-.352-2.309-.888A6.135,6.135,0,0,1,1.692,1.51,18.213,18.213,0,0,0,0,0,7.524,7.524,0,0,0,.094,1.51c.145.6.082,1.059.533,1.51A3.608,3.608,0,0,0,2.136,3.641Z" transform="translate(29.416 25.486)" fill="url(#linear-gradient-5)"/>
    <path id="Rectangle-4" data-name="Rectangle" d="M5.861,2.67C4.174,1.693,3.2,1.693,0,1.071.266.45,1.713.049,2.93.006A4.21,4.21,0,0,1,6.216,1.071a3.667,3.667,0,0,1,1.421,2.4c.224,1.32-.552,2.016-.977,3.286-.352,1.051-.9,1.559-.977,2.664a3.281,3.281,0,0,0,.311,2.131c.2.353.677.393.666.8s-.2,1.26-.666.755-1.117-.868-1.2-1.554c-.266-2.22.136-2.984.622-4.8.24-.9.8-1.293.844-2.22A3.4,3.4,0,0,0,5.861,2.67Z" transform="translate(33.95 52.564)" fill="#b26f34"/>
    <path id="Rectangle_9.12" data-name="Rectangle 9.12" d="M2.3.266,2.659,0s.123,1.407.089,2.309a8.026,8.026,0,0,1-.266,2.309C2.142,5.764,1.442,6.182.971,7.282.682,7.957.35,9.058.35,9.058S-.206,6.714.083,6.038c.471-1.1,1.171-1.517,1.51-2.664a8.026,8.026,0,0,0,.266-2.309Z" transform="translate(18.232 32.678)" fill="#d18643"/>
    <path id="Rectangle-5" data-name="Rectangle" d="M8.546,0c-.155.143-.328.038-.533.089C6.888.367,6.459,1.073,5.7,1.954a9.775,9.775,0,0,0-.977,1.421c-.738,1.185-.834,2.029-1.6,3.2-.353.54-.619.8-.977,1.332a8.159,8.159,0,0,0-.71,1.154A7,7,0,0,0,1,10.3a20.337,20.337,0,0,0-.444,3.641c-.068.52-.152.808-.178,1.332-.041.834.2,1.3.178,2.131a6.817,6.817,0,0,1-.178,1.687,9.722,9.722,0,0,0-.355,1.066A4.467,4.467,0,0,0,.2,21.667c.107.665.283,1.018.355,1.687.078.724-.279,1.192,0,1.865a2.345,2.345,0,0,0,1.154,1.243,4.062,4.062,0,0,0,1.954.355c.772.075.127-3.534.444-5.772a46.063,46.063,0,0,1,1.6-7.1A51.335,51.335,0,0,1,8.014,7.193C9.225,4.287,14.561,1.21,11.654,0Z" transform="translate(2.759 27.173)" fill="#e5a064"/>
    <path id="Rectangle-6" data-name="Rectangle" d="M.469,10.979c1.332,2.664,1.291,1.5,1.865,2.664.444.9.273,1.6.666,2.531.408.961,1.237,1.966,1.732,2.886.853,1.586.676,1.972,1.066,3.73.2.9.245,1.412.444,2.309a27.218,27.218,0,0,0,1.6,5.417,15.33,15.33,0,0,0,2.042,3.907,3.692,3.692,0,0,0,.888,1.066,3.161,3.161,0,0,0,1.421.444,10.145,10.145,0,0,0,1.776.089c1.766-.606-1.124-2.69-1.776-4.44C11.6,30,11.256,29.113,10.77,27.5c-.392-1.305-.264-2.163-.888-3.374-.5-.968-1.177-1.258-1.687-2.22-.9-1.688-.8-2.892-.977-4.8a38.608,38.608,0,0,1,0-4.174,32.477,32.477,0,0,0,0-3.286c-.094-1.085.275-1.935-.444-2.753C6.2,6.241,5.6.054,4.732.006a3.357,3.357,0,0,0-2.4.888C.922,1.934-.863,8.315.469,10.979Z" transform="translate(18.651 39.993)" fill="#e5a064"/>
    <path id="Rectangle_5.4" data-name="Rectangle 5.4" d="M0,.187.3,0S1.9,2.025,2.789,3.409c1.67,2.584,2.067,4.338,3.552,7.033.8,1.459,1.33,2.234,2.131,3.694,1.177,2.142,2.144,3.234,2.842,5.577a27.187,27.187,0,0,1,.711,5.577l-.3.187a27.187,27.187,0,0,0-.711-5.577c-.7-2.342-1.665-3.434-2.842-5.577-.8-1.46-1.327-2.235-2.131-3.694C4.554,7.934,4.157,6.18,2.487,3.6,1.593,2.212,0,.187,0,.187Z" transform="translate(21.408 26.636)" fill="url(#linear-gradient-6)"/>
    <path id="Rectangle_10.4" data-name="Rectangle 10.4" d="M1.332.977a2.9,2.9,0,0,0,.444.231.634.634,0,0,0,.533.035C2.664,1.154,2.821.86,3.2.71A3.208,3.208,0,0,1,3.818.533,7,7,0,0,1,4.973.444C5.8.39,6.272.393,7.1.355,7.832.323,8.241.308,8.969.266,9.941.21,10.484.151,11.455.089,12.045.051,12.965,0,12.965,0a1.133,1.133,0,0,1,.266.533c.281.891-.22,1.567-.888,2.22-.753.736-1.529.679-2.575.8-1.355.156-2.107-.3-3.463-.444C3.852,2.857,0,2.753,0,2.753l.8-.888Z" transform="translate(25.158 19.802)" fill="#e49046"/>
    <path id="Rectangle_6.8" data-name="Rectangle 6.8" d="M.089,6.216s5.467.3,8.658-.977C11.818,4.009,15.238,0,15.238,0a1.789,1.789,0,0,0,.213.147S11.989,4.222,8.969,5.506C5.695,6.9,0,6.394,0,6.394A.254.254,0,0,0,.089,6.216Z" transform="translate(11.305 20.779)" fill="url(#linear-gradient-7)"/>
    <path id="Rectangle_6.9" data-name="Rectangle 6.9" d="M.089,6.216s5.467.3,8.658-.977C11.818,4.009,15.238,0,15.238,0a1.789,1.789,0,0,0,.213.147S11.989,4.222,8.969,5.506C5.695,6.9,0,6.394,0,6.394A.254.254,0,0,0,.089,6.216Z" transform="translate(11.305 20.779)" fill="url(#linear-gradient-8)"/>
    <path id="Rectangle_7.4" data-name="Rectangle 7.4" d="M0,0H.178a11.571,11.571,0,0,1,.8,3.2A11.532,11.532,0,0,1,.533,5.85c-.172.006-.1.005-.178.005A11.518,11.518,0,0,0,.8,3.108,11.546,11.546,0,0,0,0,0Z" transform="translate(13.614 32.678)" fill="url(#linear-gradient-9)"/>
    <path id="Rectangle_2.15" data-name="Rectangle 2.15" d="M.2,10.141A8.306,8.306,0,0,1,1.343,7.3a10.538,10.538,0,0,1,1.8-2.309A13.039,13.039,0,0,1,6.471,2.415a15.21,15.21,0,0,1,3.8-1.6,15.329,15.329,0,0,1,4.464-.8,14.072,14.072,0,0,1,3.609.266,9.718,9.718,0,0,1,2.089.533,7.343,7.343,0,0,1,1.8.977c1.658,1.171,2.112,2.346,3.039,4.085a16,16,0,0,1,1.045,2.4,12.756,12.756,0,0,1,.76,2.575,7.41,7.41,0,0,1,0,3.818,7.467,7.467,0,0,1-1.52,2.753,9.715,9.715,0,0,1-1.994,2.042,15.417,15.417,0,0,1-3.134,1.776,21.657,21.657,0,0,1-4.084,1.776c-2.422.729-3.975,1.319-6.458.8a9.006,9.006,0,0,1-3.134-1.243,10.9,10.9,0,0,1-2.089-1.6,12.134,12.134,0,0,1-3.324-4.351C.235,14.276-.331,12.657.2,10.141Z" transform="translate(0)" fill="url(#linear-gradient-10)"/>
    <path id="Rectangle_8.6" data-name="Rectangle 8.6" d="M.429,0,4.78,7.1a5.628,5.628,0,0,1-2.042-.266,3.959,3.959,0,0,1-1.687-1.6A5.25,5.25,0,0,1,.073,3.2,8.048,8.048,0,0,1,.429,0Z" transform="translate(1.359 15.469)" fill="#b7b6b2"/>
    <g id="Group_2.3" data-name="Group 2.3" transform="translate(24.448 6.482)">
      <path id="Rectangle_9" data-name="Rectangle 9" d="M0,0A14.59,14.59,0,0,1,2.293.994a3.328,3.328,0,0,1,.888.977,4.125,4.125,0,0,1,.71,1.954,4.447,4.447,0,0,1,0,1.51A17.5,17.5,0,0,1,2.293,8.7Z" fill="#b7b7c3"/>
      <path id="Rectangle_10" data-name="Rectangle 10" d="M0,.279.394,0S.781.611.986,1.023a8.321,8.321,0,0,1,.592,1.488c.088.288.242.448.2.744a1.616,1.616,0,0,1-.394.651s-.2-.918-.394-1.488A17.824,17.824,0,0,0,0,.279Z" transform="translate(1.761 1.527)" fill="rgba(98,99,94,0.5)"/>
    </g>
    <path id="Rectangle_2.16" data-name="Rectangle 2.16" d="M.19,10.141A8.645,8.645,0,0,1,1.256,7.3,10.472,10.472,0,0,1,2.943,4.99,12.337,12.337,0,0,1,6.051,2.415,13.738,13.738,0,0,1,9.6.817a13.5,13.5,0,0,1,4.174-.8,12.325,12.325,0,0,1,3.374.266A8.612,8.612,0,0,1,19.1.817a6.738,6.738,0,0,1,1.687.977c1.551,1.171,1.975,2.346,2.842,4.085a16.6,16.6,0,0,1,.977,2.4,13.432,13.432,0,0,1,.71,2.575,7.908,7.908,0,0,1,0,3.818A7.631,7.631,0,0,1,23.9,17.422a9.448,9.448,0,0,1-1.865,2.042,14.2,14.2,0,0,1-2.93,1.776,19.593,19.593,0,0,1-3.818,1.776c-2.264.729-3.717,1.319-6.038.8a8.113,8.113,0,0,1-2.93-1.243,10.3,10.3,0,0,1-1.954-1.6,12.081,12.081,0,0,1-3.108-4.351C.22,14.276-.309,12.657.19,10.141Z" transform="translate(1.421 1.421)" fill="url(#linear-gradient-11)"/>
    <path id="Rectangle_3.3" data-name="Rectangle 3.3" d="M.2,7.637A12.152,12.152,0,0,1,2.245,4.884a12.949,12.949,0,0,1,3.108-2.4A16.834,16.834,0,0,1,8.816.888,11.34,11.34,0,0,1,13.345,0,3.268,3.268,0,0,1,15.92,1.6,13.487,13.487,0,0,1,17.7,4.351,26.766,26.766,0,0,1,18.85,7.193a4.062,4.062,0,0,1,0,2.309,13.467,13.467,0,0,1-5.506,5.15c-2.66,1.538-3.463,2.131-7.548,1.954C3.843,16.162.857,13.284.2,9.857A3.292,3.292,0,0,1,.2,7.637Z" transform="translate(4.783 5.523)" fill="url(#linear-gradient-12)"/>
    <path id="Rectangle_4.3" data-name="Rectangle 4.3" d="M3.259,3.286A15.5,15.5,0,0,1,6.9,1.243,12.19,12.19,0,0,1,10.718.089C11.27.021,12.139,0,12.139,0S8.835,3.458,7.7,6.216c-1.254,3.043-1.154,8.347-1.154,8.347l-3.73.355S-.489,9.248.062,6.926A4.87,4.87,0,0,1,1.394,4.884,10.8,10.8,0,0,1,3.259,3.286Z" transform="translate(5.545 5.523)" fill="url(#linear-gradient-13)"/>
    <path id="Subtract-3" data-name="Subtract" d="M2.328,5.093A12.663,12.663,0,0,0,.21,7.963a2.984,2.984,0,0,0-.05,2.061c.017.086.034.171.05.254.679,3.573,3.777,6.574,5.8,7.037,4.036.176,4.983-.377,7.448-1.815l.381-.222a14,14,0,0,0,5.711-5.37,4.256,4.256,0,0,0,0-2.407,27.985,27.985,0,0,0-1.2-2.963,14.072,14.072,0,0,0-1.842-2.87A3.387,3.387,0,0,0,13.843,0a11.71,11.71,0,0,0-4.7.926A17.422,17.422,0,0,0,5.552,2.593,13.443,13.443,0,0,0,2.328,5.093Zm.271.147A12.155,12.155,0,0,0,.557,7.992,2.847,2.847,0,0,0,.509,9.968c.017.083.033.165.048.244.655,3.427,3.641,6.3,5.594,6.749,3.89.169,4.8-.361,7.18-1.741l.368-.213a13.466,13.466,0,0,0,5.506-5.15,4.062,4.062,0,0,0,0-2.309,26.765,26.765,0,0,0-1.154-2.842,13.486,13.486,0,0,0-1.776-2.753A3.268,3.268,0,0,0,13.7.355a11.34,11.34,0,0,0-4.529.888,16.838,16.838,0,0,0-3.463,1.6A12.953,12.953,0,0,0,2.6,5.239Z" transform="translate(4.428 5.168)" fill="url(#linear-gradient-14)"/>
    <path id="Rectangle_8.7" data-name="Rectangle 8.7" d="M1.793,2.137A11.961,11.961,0,0,0,3.374,0S3.2.556,3.058.9A3.594,3.594,0,0,1,1.793,2.587,5.384,5.384,0,0,1,0,3.374,11.177,11.177,0,0,0,1.793,2.137Z" transform="translate(43.334 53.28)" fill="#ac7341"/>
  </g>
</svg>
